<?xml version="1.0" encoding="UTF-8"?> <svg xmlns="http://www.w3.org/2000/svg" width="479" height="109.844" viewBox="0 0 479 109.844"><defs><style> .cls-1 { fill: #f79d2b; } .cls-2 { fill: #ffffff; } .cls-3 { fill: #ffffff; } </style></defs><path class="cls-1" d="M41.092,100.553c5.056-.5,8.724-0.843,9.266-0.907a1.224,1.224,0,0,1,.856.174,0.784,0.784,0,0,1,.181.191,22.754,22.754,0,0,0,18.591,9.819h0.062a1.308,1.308,0,0,0,1.259-.947,1.411,1.411,0,0,0-.414-1.534L69,105.887a1.028,1.028,0,0,1-.258-1.352A0.929,0.929,0,0,1,70.1,104.3h0l1.868,1.444,0.09,0.072,3.176,2.46a1.887,1.887,0,0,0,2.311.01,1.948,1.948,0,0,0,.718-1.091,2,2,0,0,0-.693-2.083l-3.821-2.959a1.015,1.015,0,0,1-.314-1.219,0.931,0.931,0,0,1,1.421-.357l3.836,2.97,0.02,0.015,2.136,1.655a1.951,1.951,0,0,0,2.3.113,2.02,2.02,0,0,0,.106-3.226l-4.825-3.737a1.015,1.015,0,0,1-.314-1.219,0.931,0.931,0,0,1,1.421-.357l4.837,3.745,0.024,0.018,0.7,0.543a1.985,1.985,0,0,0,2.732-.288,2.006,2.006,0,0,0,.417-1.458,2.114,2.114,0,0,0-.83-1.431L74.345,87.806a3.154,3.154,0,0,0-3.876,0l-3.674,2.835a6.484,6.484,0,0,1-7.928-.006,2.619,2.619,0,0,1-1.011-2.17,2.741,2.741,0,0,1,1.09-2.062l6.328-4.883a0.557,0.557,0,0,0-.505-0.975l-10.4,3.739a9,9,0,0,1-4.946.33L40.67,83.189,0,73.22l5,8.963a11.55,11.55,0,0,0,7.75,5.725l25.957,5.665L7.912,89.9l3.409,5.832c2,4.29,4.425,5.956,6.058,6.7,3.363,1.531,6.145.4,15.918-.953C36.616,101.017,39.337,100.725,41.092,100.553Z"></path><path class="cls-2" d="M101.268,82.469l-12.136,2.2a9,9,0,0,1-4.988-.478l-9.8-3.877a5.461,5.461,0,0,0-5.36.767L60,88.013a0.677,0.677,0,0,0,0,1.064,4.626,4.626,0,0,0,5.657,0l3.674-2.835a5.027,5.027,0,0,1,6.146,0L88.537,96.358a4.08,4.08,0,0,1,1.558,2.576l0,0.027a0.81,0.81,0,0,0,.8.685q6.248,1.03,12.681,1.982,5.229,0.772,10.357,1.458a14.022,14.022,0,0,0,10.1-2.73,13.724,13.724,0,0,0,3.756-4.624l3.409-5.832-30.795,3.673,25.957-5.665a11.549,11.549,0,0,0,7.749-5.725l5-8.963ZM131.79,50.586V72.013l-11.33,2.441V50.586a2.857,2.857,0,0,0-1.323-2.448L71.814,11.665a2.938,2.938,0,0,0-3.288,0l-46.1,36.473A2.857,2.857,0,0,0,21.1,50.586V74.454L9.77,72.013V50.586a17.675,17.675,0,0,1,8.01-14.815L60.222,2.959a18.045,18.045,0,0,1,19.9,0l20.049,15.633V6.774A4.155,4.155,0,0,1,104.33,2.65h4.227a4.155,4.155,0,0,1,4.162,4.124v21.7l11.062,7.294A17.675,17.675,0,0,1,131.79,50.586Zm-70.8-6.654H67.4a1.2,1.2,0,0,1,1.2,1.2v6.409a1.2,1.2,0,0,1-1.2,1.2H60.995a1.2,1.2,0,0,1-1.2-1.2V45.13a1.2,1.2,0,0,1,1.2-1.2h0Zm10.721,0h6.409a1.2,1.2,0,0,1,1.2,1.2v6.409a1.2,1.2,0,0,1-1.2,1.2H71.716a1.2,1.2,0,0,1-1.2-1.2V45.13a1.2,1.2,0,0,1,1.2-1.2h0Zm7.607,11.919V62.26a1.2,1.2,0,0,1-1.2,1.2H71.716a1.2,1.2,0,0,1-1.2-1.2V55.851a1.2,1.2,0,0,1,1.2-1.2h6.409a1.2,1.2,0,0,1,1.2,1.2h0ZM67.4,63.458H60.995a1.2,1.2,0,0,1-1.2-1.2V55.851a1.2,1.2,0,0,1,1.2-1.2H67.4a1.2,1.2,0,0,1,1.2,1.2V62.26A1.2,1.2,0,0,1,67.4,63.458Z"></path><path class="cls-3" d="M299.607,49.44H273.442V28.4H262v56h11.442V59.76h26.165V84.4h11.442v-56H299.607V49.44ZM343.215,48a24.149,24.149,0,0,0-8.4-1.36,29,29,0,0,0-9.282,1.4,48.223,48.223,0,0,0-7.041,2.92l3.84,7.04a18.417,18.417,0,0,1,2.481-1.36,21.447,21.447,0,0,1,8.882-1.92,13.353,13.353,0,0,1,3.04.32,6.59,6.59,0,0,1,2.361,1.04,4.392,4.392,0,0,1,1.48,1.8,6.381,6.381,0,0,1,.48,2.6V64.4a19.576,19.576,0,0,0-4.521-1.76,24.022,24.022,0,0,0-6.2-.72q-6.882,0-10.642,3.12a10.436,10.436,0,0,0-3.761,8.48,10.9,10.9,0,0,0,1.8,6.36,11.509,11.509,0,0,0,4.761,3.96,15.146,15.146,0,0,0,6.4,1.36,17.594,17.594,0,0,0,6.441-1.2,12,12,0,0,0,5.041-3.6,9.13,9.13,0,0,0,.68-1v5h10V58.32a9.86,9.86,0,0,0-2.081-6.36A12.913,12.913,0,0,0,343.215,48Zm-2.16,21.68a8.223,8.223,0,0,1-1.2,4.52,8.078,8.078,0,0,1-3.121,2.88,9.2,9.2,0,0,1-4.321,1,7.734,7.734,0,0,1-3.08-.6,4.977,4.977,0,0,1-2.2-1.76v0a5.252,5.252,0,0,1-.08-5.445,4.628,4.628,0,0,1,2.241-1.68,10.814,10.814,0,0,1,3.921-.6,19.667,19.667,0,0,1,5.641.8,15.573,15.573,0,0,1,2.2.844V69.68ZM378.981,46.8a12.866,12.866,0,0,0-6.681,1.64,11.993,11.993,0,0,0-4.441,4.76V47.6h-10.4V84.4h10.4V62a8.5,8.5,0,0,1,.88-4,6.177,6.177,0,0,1,2.561-2.6,7.874,7.874,0,0,1,3.84-.92,5.424,5.424,0,0,1,4.641,1.92h0a9.235,9.235,0,0,1,1.441,5.6V84.4h10.722V60.88q0-6.64-3.2-10.36T378.981,46.8Zm47.769,6.7a15.734,15.734,0,0,0-4.361-4.379,14.69,14.69,0,0,0-8.2-2.32,17.706,17.706,0,0,0-8.642,2.24,16.928,16.928,0,0,0-6.561,6.52A20.5,20.5,0,0,0,396.5,66a20.553,20.553,0,0,0,2.481,10.4,16.847,16.847,0,0,0,6.561,6.56,17.706,17.706,0,0,0,8.642,2.24,14.692,14.692,0,0,0,8.2-2.32,15.68,15.68,0,0,0,4.361-4.4V84.4h10.4V22h-10.4V53.5Zm-1.4,18.261a9.635,9.635,0,0,1-3.6,3.64,9.1,9.1,0,0,1-4.521,1.24,10.1,10.1,0,0,1-4.961-1.28,9.37,9.37,0,0,1-3.68-3.68h0a12.534,12.534,0,0,1,0-11.36,9.381,9.381,0,0,1,3.68-3.68,10.12,10.12,0,0,1,4.961-1.28,9.109,9.109,0,0,1,4.521,1.24,9.655,9.655,0,0,1,3.6,3.64A12.547,12.547,0,0,1,425.35,71.76ZM468.2,47.6l-9.093,22.822L449.874,47.6H438.352l15.283,33.12L444.353,102H455l24-54.4H468.2Z"></path><path class="cls-1" d="M186.107,64.295L163.774,23.99l-6.78,58.43h6.78l4.147-37.6,18.186,32.435,18.185-32.435,4.147,37.6h6.78l-6.78-58.43ZM240.583,47.6a7.245,7.245,0,0,0-3.151-2.027,12.814,12.814,0,0,0-3.709-.517,7.991,7.991,0,0,0-5.025,1.987,14.476,14.476,0,0,0-2.711,3.025V45.852h-6.381V82.42h6.381V60.161a19.287,19.287,0,0,1,.518-4.69,6.214,6.214,0,0,1,1.874-3.259,5.483,5.483,0,0,1,3.749-1.192,6.837,6.837,0,0,1,2.632.437h0a11.4,11.4,0,0,1,2.313,1.392Zm2.71,28.54a4.381,4.381,0,0,0-6.181,0h0A4.364,4.364,0,1,0,243.293,76.14Z"></path></svg> 